<mxfile host="app.diagrams.net" agent="Mozilla/5.0 (Macintosh; Intel Mac OS X 10_15_7) AppleWebKit/537.36 (KHTML, like Gecko) Chrome/130.0.0.0 Safari/537.36 Edg/130.0.0.0" version="26.1.0">
  <diagram name="第 1 页" id="8HkXkUAdTNa6BbszlPQB">
    <mxGraphModel>
      <root>
        <mxCell id="0" />
        <mxCell id="1" parent="0" />
        <mxCell id="2" value="Start" style="whiteSpace=wrap;strokeWidth=2;" vertex="1" parent="1">
          <mxGeometry x="8" y="328" width="95" height="54" as="geometry" />
        </mxCell>
        <mxCell id="3" value="Get User Input" style="rounded=1;arcSize=20;strokeWidth=2" vertex="1" parent="1">
          <mxGeometry x="153" y="328" width="135" height="54" as="geometry" />
        </mxCell>
        <mxCell id="4" value="Valid User?" style="rhombus;strokeWidth=2;whiteSpace=wrap;" vertex="1" parent="1">
          <mxGeometry x="338" y="289" width="131" height="131" as="geometry" />
        </mxCell>
        <mxCell id="5" value="Display Error" style="whiteSpace=wrap;strokeWidth=2;" vertex="1" parent="1">
          <mxGeometry x="2513" y="8" width="151" height="54" as="geometry" />
        </mxCell>
        <mxCell id="6" value="Gateway Request" style="rhombus;strokeWidth=2;whiteSpace=wrap;" vertex="1" parent="1">
          <mxGeometry x="545" y="345" width="178" height="178" as="geometry" />
        </mxCell>
        <mxCell id="7" value="Authenticate User" style="whiteSpace=wrap;strokeWidth=2;" vertex="1" parent="1">
          <mxGeometry x="831" y="328" width="190" height="54" as="geometry" />
        </mxCell>
        <mxCell id="8" value="Display Error" style="whiteSpace=wrap;strokeWidth=2;" vertex="1" parent="1">
          <mxGeometry x="2513" y="615" width="151" height="54" as="geometry" />
        </mxCell>
        <mxCell id="9" value="Authentication Successful?" style="rhombus;strokeWidth=2;whiteSpace=wrap;" vertex="1" parent="1">
          <mxGeometry x="1071" y="233" width="244" height="244" as="geometry" />
        </mxCell>
        <mxCell id="10" value="Generate Token" style="whiteSpace=wrap;strokeWidth=2;" vertex="1" parent="1">
          <mxGeometry x="1392" y="265" width="173" height="54" as="geometry" />
        </mxCell>
        <mxCell id="11" value="Display Error" style="whiteSpace=wrap;strokeWidth=2;" vertex="1" parent="1">
          <mxGeometry x="2513" y="484" width="151" height="54" as="geometry" />
        </mxCell>
        <mxCell id="12" value="Token Generated?" style="rhombus;strokeWidth=2;whiteSpace=wrap;" vertex="1" parent="1">
          <mxGeometry x="1668" y="201" width="182" height="182" as="geometry" />
        </mxCell>
        <mxCell id="13" value="Send Token to User" style="whiteSpace=wrap;strokeWidth=2;" vertex="1" parent="1">
          <mxGeometry x="1927" y="191" width="196" height="54" as="geometry" />
        </mxCell>
        <mxCell id="14" value="Display Error" style="whiteSpace=wrap;strokeWidth=2;" vertex="1" parent="1">
          <mxGeometry x="2513" y="369" width="151" height="54" as="geometry" />
        </mxCell>
        <mxCell id="15" value="Token Sent Successfully?" style="rhombus;strokeWidth=2;whiteSpace=wrap;" vertex="1" parent="1">
          <mxGeometry x="2196" y="103" width="228" height="228" as="geometry" />
        </mxCell>
        <mxCell id="16" value="Login Successful" style="whiteSpace=wrap;strokeWidth=2;" vertex="1" parent="1">
          <mxGeometry x="2501" y="139" width="176" height="54" as="geometry" />
        </mxCell>
        <mxCell id="17" value="Display Error" style="whiteSpace=wrap;strokeWidth=2;" vertex="1" parent="1">
          <mxGeometry x="2513" y="243" width="151" height="54" as="geometry" />
        </mxCell>
        <mxCell id="18" value="End" style="whiteSpace=wrap;strokeWidth=2;" vertex="1" parent="1">
          <mxGeometry x="2727" y="317" width="86" height="54" as="geometry" />
        </mxCell>
        <mxCell id="19" value="" style="curved=1;startArrow=none;endArrow=block;exitX=1;exitY=0.5;entryX=0;entryY=0.5;" edge="1" parent="1" source="2" target="3">
          <mxGeometry relative="1" as="geometry">
            <Array as="points" />
          </mxGeometry>
        </mxCell>
        <mxCell id="20" value="" style="curved=1;startArrow=none;endArrow=block;exitX=1;exitY=0.5;entryX=0;entryY=0.5;" edge="1" parent="1" source="3" target="4">
          <mxGeometry relative="1" as="geometry">
            <Array as="points" />
          </mxGeometry>
        </mxCell>
        <mxCell id="21" value="No" style="curved=1;startArrow=none;endArrow=block;exitX=0.66;exitY=0;entryX=0;entryY=0.5;" edge="1" parent="1" source="4" target="5">
          <mxGeometry relative="1" as="geometry">
            <Array as="points">
              <mxPoint x="507" y="35" />
            </Array>
          </mxGeometry>
        </mxCell>
        <mxCell id="22" value="Yes" style="curved=1;startArrow=none;endArrow=block;exitX=1;exitY=0.88;entryX=0;entryY=0.5;" edge="1" parent="1" source="4" target="6">
          <mxGeometry relative="1" as="geometry">
            <Array as="points">
              <mxPoint x="507" y="434" />
            </Array>
          </mxGeometry>
        </mxCell>
        <mxCell id="23" value="Success" style="curved=1;startArrow=none;endArrow=block;exitX=1;exitY=0.22;entryX=0;entryY=0.5;" edge="1" parent="1" source="6" target="7">
          <mxGeometry relative="1" as="geometry">
            <Array as="points">
              <mxPoint x="777" y="355" />
            </Array>
          </mxGeometry>
        </mxCell>
        <mxCell id="24" value="Failure" style="curved=1;startArrow=none;endArrow=block;exitX=0.85;exitY=1;entryX=0;entryY=0.49;" edge="1" parent="1" source="6" target="8">
          <mxGeometry relative="1" as="geometry">
            <Array as="points">
              <mxPoint x="777" y="642" />
            </Array>
          </mxGeometry>
        </mxCell>
        <mxCell id="25" value="" style="curved=1;startArrow=none;endArrow=block;exitX=1;exitY=0.5;entryX=0;entryY=0.5;" edge="1" parent="1" source="7" target="9">
          <mxGeometry relative="1" as="geometry">
            <Array as="points" />
          </mxGeometry>
        </mxCell>
        <mxCell id="26" value="Yes" style="curved=1;startArrow=none;endArrow=block;exitX=1;exitY=0.3;entryX=0;entryY=0.5;" edge="1" parent="1" source="9" target="10">
          <mxGeometry relative="1" as="geometry">
            <Array as="points">
              <mxPoint x="1354" y="292" />
            </Array>
          </mxGeometry>
        </mxCell>
        <mxCell id="27" value="No" style="curved=1;startArrow=none;endArrow=block;exitX=1;exitY=0.99;entryX=0;entryY=0.5;" edge="1" parent="1" source="9" target="11">
          <mxGeometry relative="1" as="geometry">
            <Array as="points">
              <mxPoint x="1354" y="511" />
            </Array>
          </mxGeometry>
        </mxCell>
        <mxCell id="28" value="" style="curved=1;startArrow=none;endArrow=block;exitX=1;exitY=0.5;entryX=0;entryY=0.5;" edge="1" parent="1" source="10" target="12">
          <mxGeometry relative="1" as="geometry">
            <Array as="points" />
          </mxGeometry>
        </mxCell>
        <mxCell id="29" value="Yes" style="curved=1;startArrow=none;endArrow=block;exitX=1;exitY=0.21;entryX=0;entryY=0.49;" edge="1" parent="1" source="12" target="13">
          <mxGeometry relative="1" as="geometry">
            <Array as="points">
              <mxPoint x="1888" y="218" />
            </Array>
          </mxGeometry>
        </mxCell>
        <mxCell id="30" value="No" style="curved=1;startArrow=none;endArrow=block;exitX=1;exitY=0.9;entryX=0;entryY=0.5;" edge="1" parent="1" source="12" target="14">
          <mxGeometry relative="1" as="geometry">
            <Array as="points">
              <mxPoint x="1888" y="396" />
            </Array>
          </mxGeometry>
        </mxCell>
        <mxCell id="31" value="" style="curved=1;startArrow=none;endArrow=block;exitX=1;exitY=0.49;entryX=0;entryY=0.5;" edge="1" parent="1" source="13" target="15">
          <mxGeometry relative="1" as="geometry">
            <Array as="points" />
          </mxGeometry>
        </mxCell>
        <mxCell id="32" value="Yes" style="curved=1;startArrow=none;endArrow=block;exitX=1;exitY=0.33;entryX=0;entryY=0.49;" edge="1" parent="1" source="15" target="16">
          <mxGeometry relative="1" as="geometry">
            <Array as="points">
              <mxPoint x="2463" y="166" />
            </Array>
          </mxGeometry>
        </mxCell>
        <mxCell id="33" value="No" style="curved=1;startArrow=none;endArrow=block;exitX=1;exitY=0.67;entryX=0;entryY=0.49;" edge="1" parent="1" source="15" target="17">
          <mxGeometry relative="1" as="geometry">
            <Array as="points">
              <mxPoint x="2463" y="270" />
            </Array>
          </mxGeometry>
        </mxCell>
        <mxCell id="34" value="" style="curved=1;startArrow=none;endArrow=block;exitX=1.01;exitY=0.49;entryX=0.22;entryY=0;" edge="1" parent="1" source="17" target="18">
          <mxGeometry relative="1" as="geometry">
            <Array as="points">
              <mxPoint x="2702" y="270" />
            </Array>
          </mxGeometry>
        </mxCell>
        <mxCell id="35" value="" style="curved=1;startArrow=none;endArrow=block;exitX=1;exitY=0.49;entryX=0.38;entryY=0;" edge="1" parent="1" source="16" target="18">
          <mxGeometry relative="1" as="geometry">
            <Array as="points">
              <mxPoint x="2702" y="166" />
            </Array>
          </mxGeometry>
        </mxCell>
        <mxCell id="36" value="" style="curved=1;startArrow=none;endArrow=block;exitX=1.01;exitY=0.49;entryX=0.43;entryY=1;" edge="1" parent="1" source="8" target="18">
          <mxGeometry relative="1" as="geometry">
            <Array as="points">
              <mxPoint x="2702" y="642" />
            </Array>
          </mxGeometry>
        </mxCell>
        <mxCell id="37" value="" style="curved=1;startArrow=none;endArrow=block;exitX=1.01;exitY=0.5;entryX=0.09;entryY=1;" edge="1" parent="1" source="14" target="18">
          <mxGeometry relative="1" as="geometry">
            <Array as="points">
              <mxPoint x="2702" y="396" />
            </Array>
          </mxGeometry>
        </mxCell>
        <mxCell id="38" value="" style="curved=1;startArrow=none;endArrow=block;exitX=1.01;exitY=0.5;entryX=0.38;entryY=1;" edge="1" parent="1" source="11" target="18">
          <mxGeometry relative="1" as="geometry">
            <Array as="points">
              <mxPoint x="2702" y="511" />
            </Array>
          </mxGeometry>
        </mxCell>
        <mxCell id="39" value="" style="curved=1;startArrow=none;endArrow=block;exitX=1.01;exitY=0.5;entryX=0.43;entryY=0;" edge="1" parent="1" source="5" target="18">
          <mxGeometry relative="1" as="geometry">
            <Array as="points">
              <mxPoint x="2702" y="35" />
            </Array>
          </mxGeometry>
        </mxCell>
      </root>
    </mxGraphModel>
  </diagram>
</mxfile>
